<svg xmlns="http://www.w3.org/2000/svg" viewBox="0 0 64 64" role="img" aria-labelledby="title desc">
  <title id="title">Hermes-Helper tray sigil</title>
  <desc id="desc">A simplified crimson H in a gold-edged black shield, optimized for small system panels.</desc>
  <defs>
    <linearGradient id="gold" x1="0" y1="0" x2="1" y2="1">
      <stop offset="0" stop-color="#ffe58c"/>
      <stop offset=".5" stop-color="#c58b32"/>
      <stop offset="1" stop-color="#fff0a2"/>
    </linearGradient>
    <linearGradient id="red" x1="0" y1="0" x2="0" y2="1">
      <stop offset="0" stop-color="#ff4c43"/>
      <stop offset="1" stop-color="#9c0714"/>
    </linearGradient>
  </defs>
  <path d="M32 3 L58 12 L54 43 Q50 55 32 62 Q14 55 10 43 L6 12 Z"
        fill="#08090d" stroke="#4b0910" stroke-width="5" stroke-linejoin="round"/>
  <path d="M32 4.5 L56 13 L52 42 Q48 53 32 59 Q16 53 12 42 L8 13 Z"
        fill="#0b0b0e" stroke="#d9aa50" stroke-width="2.8" stroke-linejoin="round"/>
  <path d="M17 17 H27 V27 H37 V17 H47 V48 H37 V37 H27 V48 H17 Z"
        fill="#c51f2b" stroke="#f5c765" stroke-width="2.1" stroke-linejoin="miter"/>
  <path d="M32 27 L40 32 L32 38 L24 32 Z" fill="#d5a446" stroke="#6c1b13" stroke-width="1.4"/>
  <circle cx="32" cy="32" r="2.3" fill="#ff3b31"/>
</svg>
